<svg width="70" height="70" viewBox="0 0 70 70" fill="none" xmlns="http://www.w3.org/2000/svg">
<path d="M8.16675 14H5.83337V52.5H8.16675V14Z" fill="black"/>
<path d="M15.1666 14H11.6666V46.6666H15.1666V14Z" fill="black"/>
<path d="M21 14H18.6666V46.6666H21V14Z" fill="black"/>
<path d="M26.8334 14H23.3334V46.6666H26.8334V14Z" fill="black"/>
<path d="M31.5 14H29.1666V46.6666H31.5V14Z" fill="black"/>
<path d="M1.16662 7C0.466621 7 0 7.46662 0 8.16662V14H2.33338V9.33338H7V7H1.16662Z" fill="black"/>
<path d="M36.1668 14H33.8334V52.5H36.1668V14Z" fill="black"/>
<path d="M47.8334 14H44.3334V46.6666H47.8334V14Z" fill="black"/>
<path d="M53.6667 14H51.3334V46.6666H53.6667V14Z" fill="black"/>
<path d="M59.5 14H56V46.6666H59.5V14Z" fill="black"/>
<path d="M64.1668 14H61.8334V52.5H64.1668V14Z" fill="black"/>
<path d="M2.33338 60.6666V56H0V61.8334C0 62.5334 0.466621 63 1.16662 63H7V60.6666H2.33338Z" fill="black"/>
<path d="M67.6666 56V60.6666H63V63H68.8334C69.5334 63 70 62.5334 70 61.8334V56H67.6666Z" fill="black"/>
<path d="M68.8334 7H63V9.33338H67.6666V14H70V8.16662C70 7.46662 69.5334 7 68.8334 7Z" fill="black"/>
<path d="M12.8334 49H10.5V52.5H12.8334V49Z" fill="black"/>
<path d="M17.5 49H15.1666V52.5H17.5V49Z" fill="black"/>
<path d="M22.1668 49H19.8334V52.5H22.1668V49Z" fill="black"/>
<path d="M26.8334 49H24.5V52.5H26.8334V49Z" fill="black"/>
<path d="M31.5 49H29.1666V52.5H31.5V49Z" fill="black"/>
<path d="M40.8334 49H38.5V52.5H40.8334V49Z" fill="black"/>
<path d="M45.5 49H43.1666V52.5H45.5V49Z" fill="black"/>
<path d="M50.1668 49H47.8334V52.5H50.1668V49Z" fill="black"/>
<path d="M54.8334 49H52.5V52.5H54.8334V49Z" fill="black"/>
<path d="M59.5 49H57.1666V52.5H59.5V49Z" fill="black"/>
<path d="M42 14H39.6666V46.6666H42V14Z" fill="black"/>
</svg>
