<svg width="40" height="40" viewBox="0 0 40 40" fill="none" xmlns="http://www.w3.org/2000/svg">
<g id="bi:facebook" clip-path="url(#clip0_5624_2020)">
<g id="Group">
<path id="Vector" d="M39.9991 20.1211C39.9991 9.00609 31.0441 -0.00390625 19.9991 -0.00390625C8.94914 -0.00140625 -0.00585938 9.00609 -0.00585938 20.1236C-0.00585938 30.1661 7.30914 38.4911 16.8691 40.0011V25.9386H11.7941V20.1236H16.8741V15.6861C16.8741 10.6436 19.8616 7.85859 24.4291 7.85859C26.6191 7.85859 28.9066 8.25109 28.9066 8.25109V13.2011H26.3841C23.9016 13.2011 23.1266 14.7536 23.1266 16.3461V20.1211H28.6716L27.7866 25.9361H23.1241V39.9986C32.6841 38.4886 39.9991 30.1636 39.9991 20.1211Z" fill="white"/>
</g>
</g>
<defs>
<clipPath id="clip0_5624_2020">
<rect width="40" height="40" fill="white"/>
</clipPath>
</defs>
</svg>
