<svg width="70" height="70" viewBox="0 0 70 70" fill="none" xmlns="http://www.w3.org/2000/svg">
<g id="boxes_1 (2) 1">
<path id="Vector" d="M66.5509 34.0428H51.7344V3.44897C51.7344 3.19515 51.6335 2.95173 51.4541 2.77225C51.2746 2.59277 51.0312 2.49194 50.7773 2.49194H19.2243C18.9705 2.49194 18.7271 2.59277 18.5476 2.77225C18.3681 2.95173 18.2673 3.19515 18.2673 3.44897V34.0428H3.44916C3.19534 34.0428 2.95192 34.1436 2.77244 34.3231C2.59296 34.5026 2.49213 34.746 2.49213 34.9998V66.5507C2.49206 66.6764 2.51676 66.8009 2.56483 66.917C2.6129 67.0332 2.6834 67.1387 2.77228 67.2276C2.86116 67.3165 2.96669 67.3869 3.08284 67.435C3.19898 67.4831 3.32346 67.5078 3.44916 67.5077H66.5509C66.6766 67.5078 66.801 67.4831 66.9172 67.435C67.0333 67.3869 67.1389 67.3165 67.2277 67.2276C67.3166 67.1387 67.3871 67.0332 67.4352 66.917C67.4833 66.8009 67.508 66.6764 67.5079 66.5507V34.9998C67.5079 34.746 67.4071 34.5026 67.2276 34.3231C67.0481 34.1436 66.8047 34.0428 66.5509 34.0428ZM65.5938 42.0507H55.5734V35.9569H65.5938V42.0507ZM16.3406 35.9569H22.108V48.389L20.0845 46.2731C19.9976 46.1822 19.8936 46.1094 19.7784 46.0587C19.6633 46.0081 19.5394 45.9806 19.4136 45.9779C19.2879 45.9751 19.1628 45.9972 19.0456 46.0428C18.9284 46.0884 18.8213 46.1566 18.7305 46.2436L16.3406 48.5339V35.9569ZM24.022 35.9569H34.043V42.0507H24.022V35.9569ZM35.957 35.9569H45.978V42.0507H35.957V35.9569ZM47.892 35.9569H53.6594V48.389L51.6359 46.2731C51.5491 46.1822 51.4451 46.1093 51.33 46.0586C51.215 46.0079 51.091 45.9804 50.9653 45.9777C50.8396 45.9749 50.7146 45.997 50.5974 46.0426C50.4802 46.0883 50.3732 46.1565 50.2824 46.2436L47.8915 48.5339L47.892 35.9569ZM49.8203 10.4998H39.7977V4.40601H49.8203V10.4998ZM32.1163 4.40601H37.8837V16.8381L35.8602 14.7223C35.7733 14.6314 35.6693 14.5586 35.5541 14.5079C35.439 14.4572 35.3151 14.4297 35.1893 14.427C35.0636 14.4243 34.9385 14.4463 34.8213 14.4919C34.7041 14.5375 34.597 14.6057 34.5062 14.6927L32.1152 16.9825L32.1163 4.40601ZM30.2023 4.40601V10.4998H20.1797V4.40601H30.2023ZM20.1797 12.4139H30.2023V19.2241C30.2023 19.4116 30.2574 19.595 30.3607 19.7514C30.464 19.9078 30.611 20.0305 30.7835 20.1041C30.9559 20.1777 31.1461 20.1991 31.3306 20.1656C31.515 20.132 31.6856 20.045 31.821 19.9154L35.1395 16.7375L38.1473 19.8858C38.2795 20.0237 38.4499 20.119 38.6366 20.1592C38.8234 20.1995 39.0179 20.183 39.1952 20.1119C39.3725 20.0407 39.5244 19.9182 39.6315 19.76C39.7386 19.6018 39.7959 19.4152 39.7961 19.2241V12.4139H49.8203V34.0428H20.1797V12.4139ZM14.4266 35.9569V42.0507H4.40619V35.9569H14.4266ZM4.40619 43.9648H14.4266V50.7755C14.4266 50.9631 14.4817 51.1465 14.5851 51.303C14.6885 51.4594 14.8356 51.5821 15.0081 51.6557C15.1806 51.7292 15.3709 51.7505 15.5554 51.7168C15.7399 51.6832 15.9105 51.596 16.0459 51.4662L19.3638 48.2889L22.3716 51.4373C22.5036 51.5754 22.674 51.6708 22.8608 51.7113C23.0476 51.7517 23.2422 51.7353 23.4196 51.6642C23.5969 51.5931 23.749 51.4705 23.856 51.3122C23.9631 51.1539 24.0204 50.9672 24.0204 50.7761V43.9648H34.043V65.5937H4.40619V43.9648ZM35.957 65.5937V43.9648H45.978V50.7755C45.9781 50.963 46.0333 51.1462 46.1366 51.3026C46.24 51.459 46.387 51.5815 46.5594 51.6551C46.7318 51.7286 46.922 51.75 47.1064 51.7164C47.2908 51.6828 47.4613 51.5958 47.5967 51.4662L50.9141 48.2889L53.9219 51.4373C54.054 51.5753 54.2244 51.6707 54.4112 51.7111C54.598 51.7515 54.7926 51.7351 54.97 51.664C55.1473 51.5929 55.2994 51.4703 55.4066 51.3121C55.5137 51.1539 55.5711 50.9672 55.5713 50.7761V43.9648H65.5916V65.5937H35.957Z" fill="black"/>
<path id="Vector_2" d="M14.1236 61.1404H8.30542C8.0516 61.1404 7.80817 61.2412 7.6287 61.4207C7.44922 61.6002 7.34839 61.8436 7.34839 62.0974C7.34839 62.3512 7.44922 62.5947 7.6287 62.7741C7.80817 62.9536 8.0516 63.0544 8.30542 63.0544H14.1236C14.3774 63.0544 14.6208 62.9536 14.8003 62.7741C14.9798 62.5947 15.0806 62.3512 15.0806 62.0974C15.0806 61.8436 14.9798 61.6002 14.8003 61.4207C14.6208 61.2412 14.3774 61.1404 14.1236 61.1404Z" fill="black"/>
<path id="Vector_3" d="M19.7668 61.1404H17.7893C17.5355 61.1404 17.2921 61.2412 17.1126 61.4207C16.9331 61.6002 16.8323 61.8436 16.8323 62.0974C16.8323 62.3512 16.9331 62.5947 17.1126 62.7741C17.2921 62.9536 17.5355 63.0544 17.7893 63.0544H19.7668C20.0206 63.0544 20.264 62.9536 20.4435 62.7741C20.623 62.5947 20.7238 62.3512 20.7238 62.0974C20.7238 61.8436 20.623 61.6002 20.4435 61.4207C20.264 61.2412 20.0206 61.1404 19.7668 61.1404Z" fill="black"/>
</g>
</svg>
