<svg width="70" height="70" viewBox="0 0 70 70" fill="none" xmlns="http://www.w3.org/2000/svg">
<g id="shipment_1 1">
<path id="Vector" d="M30.625 56.875C28.8159 56.875 27.3438 58.3472 27.3438 60.1562C27.3438 61.9653 28.8159 63.4375 30.625 63.4375C32.4341 63.4375 33.9062 61.9653 33.9062 60.1562C33.9062 58.3472 32.4341 56.875 30.625 56.875ZM30.625 61.25C30.0223 61.25 29.5312 60.7589 29.5312 60.1562C29.5312 59.5536 30.0223 59.0625 30.625 59.0625C31.2277 59.0625 31.7188 59.5536 31.7188 60.1562C31.7188 60.7589 31.2277 61.25 30.625 61.25Z" fill="black"/>
<path id="Vector_2" d="M32.0391 29.8517L21.8749 40.0159L10.6169 28.758L8.42944 26.5705C8.00178 26.1428 7.31053 26.1428 6.88288 26.5705L2.50788 30.9455C2.08022 31.3731 2.08022 32.0644 2.50788 32.492L4.69538 34.6795C4.90866 34.8928 5.18866 35 5.46866 35C5.74866 35 6.02866 34.8928 6.24194 34.6795L9.84366 31.0778L26.8908 48.125L24.3829 50.633C24.0219 50.9928 23.9585 51.5539 24.2287 51.9859L25.6855 54.3167C24.0263 55.7222 22.9687 57.8167 22.9687 60.1562H9.84366V38.2812H7.65616V61.25C7.65616 61.8537 8.14616 62.3438 8.74991 62.3438H23.2913C24.2352 65.5025 27.1643 67.8125 30.6249 67.8125C32.9644 67.8125 35.059 66.7548 36.4644 65.0956L38.7952 66.5525C38.9735 66.6641 39.1748 66.7188 39.3749 66.7188C39.6582 66.7188 39.9382 66.6094 40.1493 66.3983L43.4305 63.117L44.2027 62.3438H61.2499C61.8537 62.3438 62.3437 61.8537 62.3437 61.25V24.0625H66.7187C67.1605 24.0625 67.5598 23.7956 67.7293 23.3877C67.8988 22.9786 67.8048 22.5083 67.4919 22.1955L47.8044 2.50797C47.5912 2.29469 47.3112 2.1875 47.0312 2.1875H25.1562C24.8663 2.1875 24.5874 2.30234 24.3829 2.50797L20.3283 6.5625H16.4062C15.8024 6.5625 15.3124 7.0525 15.3124 7.65625V11.5784L4.69538 22.1955C4.38256 22.5083 4.2885 22.9786 4.45803 23.3877C4.62756 23.7956 5.02678 24.0625 5.46866 24.0625H27.3437H31.7187V27.3438H33.9062V22.9688C33.9062 22.365 33.4162 21.875 32.8124 21.875H29.984L47.0312 4.82781L64.0783 21.875H61.2499C60.6462 21.875 60.1562 22.365 60.1562 22.9688V60.1562H46.3902L58.7419 47.8045L57.1954 46.258L54.6874 48.7659L44.5232 38.6017C44.0955 38.1741 43.4043 38.1741 42.9766 38.6017L42.6562 38.9222L33.5857 29.8517C33.158 29.4241 32.4668 29.4241 32.0391 29.8517ZM5.46866 32.3597L4.82772 31.7188L7.65616 28.8903L8.29709 29.5312L5.46866 32.3597ZM24.0624 8.75H26.2499V11.5784L24.0624 13.7659V8.75ZM17.4999 8.75H21.8749V15.3125H17.4999V8.75ZM26.8908 21.875H8.10897L15.3124 14.6716V16.4062C15.3124 17.01 15.8024 17.5 16.4062 17.5H22.9687C23.2705 17.5 23.544 17.3775 23.7419 17.1795L28.1169 12.8045C28.3226 12.6 28.4374 12.3211 28.4374 12.0312V7.65625C28.4374 7.0525 27.9474 6.5625 27.3437 6.5625H23.4215L25.609 4.375H44.3908L26.8908 21.875ZM26.5452 51.5648L28.4374 49.6727L31.2998 52.535C31.0766 52.5142 30.8524 52.5 30.6249 52.5C29.5268 52.5 28.4844 52.7362 27.5394 53.1552L26.5452 51.5648ZM30.6249 65.625C27.6094 65.625 25.1562 63.1717 25.1562 60.1562C25.1562 57.1408 27.6094 54.6875 30.6249 54.6875C33.6404 54.6875 36.0937 57.1408 36.0937 60.1562C36.0937 63.1717 33.6404 65.625 30.6249 65.625ZM39.2163 64.2359L37.626 63.2417C38.0449 62.2967 38.2812 61.2544 38.2812 60.1562C38.2812 59.9287 38.2669 59.7045 38.2473 59.4814L41.1096 62.3438L39.2163 64.2359ZM53.1408 50.3125L42.6562 60.7972L33.2652 51.4062L36.0937 48.5778L40.7891 53.2733C41.0024 53.4866 41.2824 53.5938 41.5624 53.5938C41.8424 53.5938 42.1224 53.4866 42.3357 53.2733L45.6169 49.992C46.0446 49.5644 46.0446 48.8731 45.6169 48.4455L40.9215 43.75L43.7499 40.9216L53.1408 50.3125ZM39.3749 45.2966L43.2971 49.2188L41.5624 50.9534L37.6402 47.0312L39.3749 45.2966ZM31.7187 49.8597L23.4215 41.5625L32.8124 32.1716L41.1096 40.4688L31.7187 49.8597Z" fill="black"/>
<path id="Vector_3" d="M55.7812 22.9688C55.7812 18.1441 51.8559 14.2188 47.0312 14.2188C42.2067 14.2188 38.2812 18.1441 38.2812 22.9688C38.2812 27.7933 42.2067 31.7188 47.0312 31.7188C51.8559 31.7188 55.7812 27.7933 55.7812 22.9688ZM48.125 29.4328V24.0625H53.4953C53.0316 26.8045 50.8671 28.9691 48.125 29.4328ZM53.4953 21.875H48.125V16.5047C50.8671 16.9684 53.0316 19.133 53.4953 21.875ZM45.9375 16.5047V21.875H40.5672C41.0309 19.133 43.1955 16.9684 45.9375 16.5047ZM40.5672 24.0625H45.9375V29.4328C43.1955 28.9691 41.0309 26.8045 40.5672 24.0625Z" fill="black"/>
</g>
</svg>
