<svg width="70" height="70" viewBox="0 0 70 70" fill="none" xmlns="http://www.w3.org/2000/svg">
<g id="worldwide_1 1">
<path id="Vector" d="M40.7814 20.4509H40.6675C40.1011 20.4509 39.6422 20.91 39.6422 21.4763C39.6422 22.0426 40.1011 22.5017 40.6675 22.5017H40.7814C41.3479 22.5017 41.8068 22.0426 41.8068 21.4763C41.8068 20.91 41.3477 20.4509 40.7814 20.4509Z" fill="black"/>
<path id="Vector_2" d="M43.5847 18.3518H43.4708C42.9044 18.3518 42.4454 18.8109 42.4454 19.3772C42.4454 19.9435 42.9044 20.4026 43.4708 20.4026H43.5847C44.1511 20.4026 44.6101 19.9435 44.6101 19.3772C44.6101 18.8109 44.1511 18.3518 43.5847 18.3518Z" fill="black"/>
<path id="Vector_3" d="M21.1962 42.1106C21.7627 42.1106 22.2216 41.6515 22.2216 41.0852C22.2216 40.5189 21.7627 40.0598 21.1962 40.0598H21.0822C20.5158 40.0598 20.0568 40.5189 20.0568 41.0852C20.0568 41.6515 20.5158 42.1106 21.0822 42.1106H21.1962Z" fill="black"/>
<path id="Vector_4" d="M63.2891 26.5919C68.7626 16.0865 67.0023 10.974 64.5623 8.53535C62.1226 6.09547 57.0094 4.3359 46.5062 9.8082C46.0055 10.0688 45.4953 10.3448 44.9842 10.631C42.7051 9.80205 40.3328 9.26228 37.9126 9.02248C38.2537 8.15062 38.4583 7.34863 38.4583 6.6783C38.4579 2.99592 35.4621 0 31.7798 0C28.0974 0 25.1016 2.99592 25.1016 6.6783C25.1016 7.64982 25.531 8.89793 26.1839 10.2344C20.0489 12.1756 14.6788 16.1304 10.9821 21.4561C10.6592 21.9213 10.7744 22.5602 11.2398 22.8832C11.4181 23.0069 11.6218 23.0662 11.8236 23.0662C12.1483 23.0662 12.4677 22.9124 12.6669 22.6254C14.0889 20.5769 15.7778 18.7473 17.6719 17.1771L18.2728 18.9614C18.5217 19.7006 19.1527 20.2498 19.9193 20.3945L24.8718 21.3288C24.8971 21.3336 24.9199 21.3471 24.9362 21.3672L27.4042 24.4017C27.6797 24.7404 28.0463 24.9849 28.4646 25.1092L30.9271 25.8409C30.9437 25.8459 30.959 25.8549 30.9716 25.8668L35.7452 30.4469C35.7663 30.4672 35.7787 30.4961 35.7787 30.5257V35.8379C35.7787 35.8606 35.7718 35.8822 35.7587 35.9008L33.9489 38.4642C33.4428 39.1814 33.4192 40.1239 33.8888 40.8654L34.3216 41.549C34.6439 42.0576 35.1685 42.4108 35.7607 42.5182L38.9214 43.0914C39.0473 43.1143 39.1746 43.1255 39.3012 43.1255C39.8313 43.1255 40.3537 42.9297 40.7515 42.5716L44.5004 39.1977C44.9548 38.7888 45.2154 38.2036 45.2154 37.5921V31.3741C45.2154 31.3499 45.2237 31.326 45.2386 31.3068L48.0605 27.7054C48.0812 27.6788 48.1125 27.6637 48.1462 27.6637H54.5802C53.9882 28.5928 53.3555 29.5371 52.6826 30.4936C51.6985 31.8922 51.8591 33.7822 53.0644 34.9876C53.7237 35.6468 54.6099 36.0112 55.533 36.0112C55.6332 36.0112 55.7343 36.0068 55.8352 35.9982C56.8689 35.9092 57.8047 35.3708 58.403 34.5211C59.3689 33.1494 60.2636 31.7949 61.0816 30.4668C61.8031 32.9342 62.1686 35.4927 62.1686 38.0974C62.1686 45.0525 59.5404 51.4046 55.2265 56.2155L55.4992 53.4423C55.5439 52.9881 55.4463 52.5394 55.2169 52.1449L52.4418 47.3725C52.1748 46.9135 51.7497 46.57 51.2451 46.4052L46.624 44.8963C46.6076 44.3879 46.4011 43.9012 46.028 43.5281C45.5182 43.0183 44.7963 42.8177 44.0962 42.992L35.628 45.1C34.917 45.2769 34.3536 45.8255 34.1576 46.5314C34.1187 46.6717 34.0961 46.814 34.0879 46.9561H32.2402C32.2145 46.9561 32.1895 46.9469 32.1697 46.9301L27.558 43.0147C27.5165 42.9795 27.5072 42.9204 27.5356 42.8742L28.1898 41.8149C28.6702 41.0368 28.6072 40.0358 28.0331 39.3243L26.0414 36.8545C25.6292 36.3437 25.0166 36.0507 24.3602 36.0507H19.5315C18.7775 36.0507 18.0681 36.4522 17.68 37.0985L15.8039 40.2216C15.3454 40.9853 15.4072 41.969 15.958 42.6694L17.5748 44.7243C17.5925 44.7465 17.6005 44.7743 17.5978 44.8023L16.9958 50.964C16.953 51.4042 17.0442 51.841 17.26 52.227L19.2741 55.8333C19.2861 55.8549 19.2905 55.8804 19.2864 55.9047L18.6248 59.7764C16.1972 57.9426 14.109 55.7334 12.4064 53.1902C12.385 53.1582 12.3619 53.1281 12.3377 53.0994C12.3184 53.0597 12.2967 53.021 12.2721 52.9837C11.2066 51.363 10.3136 49.6207 9.61739 47.8052C9.60645 47.7768 9.59237 47.7504 9.5791 47.7235C9.56994 47.6874 9.55901 47.6513 9.54574 47.6156C8.40865 44.5761 7.83211 41.3736 7.83211 38.0972C7.83211 34.0442 8.70438 30.1435 10.4247 26.5035C10.6667 25.9915 10.4477 25.3803 9.9358 25.1383C9.42406 24.8965 8.81266 25.1152 8.57053 25.6272C6.7199 29.5433 5.78147 33.7388 5.78147 38.0972C5.78147 41.5294 6.37209 44.8867 7.53393 48.0817C7.24764 48.5929 6.97174 49.103 6.71184 49.6027C1.23817 60.1081 2.99842 65.2206 5.43858 67.6592C6.99129 69.2121 9.10647 69.9995 11.7249 69.9995C14.9344 69.9995 18.8943 68.7836 23.4952 66.3861C23.9962 66.1251 24.5029 65.851 25.0145 65.5644C28.2103 66.7265 31.5698 67.3163 35.0007 67.3163C51.1123 67.3163 64.22 54.2086 64.22 38.0971C64.22 34.6648 63.6291 31.3059 62.4661 28.1098C62.7513 27.5994 63.0285 27.0922 63.2891 26.5919ZM19.0499 51.2273C19.0389 51.2077 19.0343 51.1856 19.0365 51.1636L19.6385 45.0022C19.6927 44.4454 19.5322 43.8964 19.1861 43.4566L17.5694 41.4019C17.5415 41.3664 17.5382 41.3165 17.5614 41.278L19.4375 38.1549C19.4572 38.1224 19.4929 38.102 19.531 38.102H24.3596C24.3929 38.102 24.4239 38.1169 24.4447 38.1426L26.4363 40.6124C26.4654 40.6484 26.4684 40.699 26.4443 40.7381L25.7901 41.7972C25.2249 42.7126 25.41 43.8823 26.2302 44.5787L30.8416 48.4937C31.2315 48.825 31.7279 49.0074 32.2397 49.0074H35.1703L35.5138 49.351C30.3866 53.855 25.2828 57.5024 20.6736 59.9597L21.3072 56.2509C21.3901 55.7662 21.3037 55.2628 21.0639 54.8338L19.0499 51.2273ZM17.4914 61.492C15.5353 62.3197 14.1019 62.6968 13.1538 62.8642C11.4001 63.1742 10.5896 62.9137 10.3862 62.7103C9.94045 62.2651 9.75315 59.9832 11.6062 55.6065C13.2816 57.8447 15.2528 59.8165 17.4914 61.492ZM27.367 64.1795C28.9106 63.2285 30.4909 62.1738 32.096 61.0214C32.5561 60.6911 32.6612 60.0504 32.331 59.5905C32.0006 59.1304 31.3598 59.0255 30.9 59.3556C28.0006 61.4374 25.1901 63.191 22.5467 64.5679C18.2415 66.8116 14.6001 67.9492 11.7241 67.9492C9.66934 67.9492 8.04211 67.3639 6.88766 66.2093C4.93272 64.2558 3.63074 59.9532 8.5302 50.55C8.53539 50.5397 8.54072 50.5295 8.54619 50.5192C9.04905 51.5875 9.61656 52.6251 10.244 53.6226C7.88147 58.6968 7.3886 62.6151 8.93612 64.1605C10.6772 65.904 15.2654 65.0958 21.2085 61.9985C26.3154 59.3381 32.0155 55.2442 37.6929 50.1592C37.9027 49.9712 38.026 49.7052 38.0337 49.4236C38.0415 49.1419 37.9331 48.8696 37.7339 48.6704L36.1478 47.0842L44.5682 44.9883L42.472 53.4086L41.2363 52.1728C40.8506 51.7873 40.2309 51.7709 39.8257 52.1355C38.0852 53.7007 36.3105 55.2017 34.5508 56.5968C34.107 56.9486 34.0325 57.5936 34.3843 58.0374C34.7359 58.4809 35.3809 58.5557 35.8247 58.2038C37.3733 56.976 38.9329 55.6682 40.4708 54.3078L41.0399 54.8769C41.5578 55.3949 42.318 55.5949 43.0245 55.3991C43.7305 55.2031 44.2791 54.6398 44.4562 53.9287L46.2018 46.9161L50.6083 48.355C50.6338 48.3633 50.6553 48.3807 50.6687 48.4038L53.4438 53.1762C53.4554 53.1962 53.4603 53.2187 53.458 53.2417L52.943 58.4793C48.1535 62.7007 41.8711 65.2661 35 65.2661C32.3951 65.266 29.8354 64.9009 27.367 64.1795ZM31.7798 2.05078C34.3313 2.05078 36.4073 4.12672 36.4073 6.6783C36.4073 8.04986 34.8131 11.0701 32.143 14.7573C32.0261 14.9188 31.8654 14.9428 31.7799 14.9428C31.6946 14.9428 31.5338 14.9186 31.4169 14.7573C28.7465 11.0703 27.1524 8.05 27.1524 6.6783C27.1524 4.12672 29.2283 2.05078 31.7798 2.05078ZM46.4459 26.4409L43.6243 30.0419C43.3277 30.4203 43.1645 30.8934 43.1645 31.3741V37.5921C43.1645 37.623 43.1513 37.6525 43.1282 37.6733L39.3793 41.0473C39.3543 41.0698 39.3198 41.0795 39.2867 41.0736L36.1263 40.5005C36.0964 40.495 36.0699 40.4771 36.0537 40.4515L35.621 39.7682C35.5972 39.7307 35.5986 39.683 35.624 39.6469L37.4334 37.0841C37.6923 36.7177 37.8292 36.2869 37.8292 35.8381V30.5259C37.8292 29.9406 37.587 29.3725 37.1647 28.9673L32.3912 24.3872C32.144 24.15 31.8398 23.9729 31.511 23.8752L29.0484 23.1435C29.0273 23.1372 29.0088 23.1249 28.9948 23.1078L26.527 20.0736C26.2053 19.6779 25.7525 19.4082 25.2516 19.3137L20.2992 18.3794C20.2605 18.3721 20.2285 18.3442 20.216 18.3071L19.3926 15.8616C21.7595 14.1971 24.3874 12.9104 27.1799 12.0719C27.9762 13.4225 28.899 14.7775 29.7555 15.9601C30.2242 16.6072 30.9808 16.9937 31.7795 16.9937C32.5783 16.9937 33.3349 16.6074 33.8036 15.9601C34.8874 14.4636 36.0766 12.6916 36.9821 11.0012C39.5726 11.1881 42.1108 11.7411 44.5319 12.6488C44.5669 12.6619 44.6022 12.6723 44.6375 12.6815C44.6609 12.6926 44.6833 12.705 44.7078 12.7144C46.5216 13.4099 48.2634 14.3031 49.8849 15.3691C49.9079 15.3843 49.9322 15.3964 49.9561 15.4096C49.9779 15.4267 49.9996 15.4436 50.023 15.4591C50.8623 16.0174 51.68 16.6296 52.4534 17.2787C52.6455 17.4398 52.8794 17.5186 53.112 17.5186C53.4046 17.5186 53.6952 17.394 53.898 17.1523C54.2621 16.7185 54.2055 16.0717 53.7717 15.7078C53.3603 15.3625 52.9371 15.0273 52.5054 14.7037C55.5665 13.4058 57.4067 13.1895 58.288 13.1895C59.049 13.1895 59.4764 13.3476 59.6131 13.4848C59.8157 13.6872 60.0762 14.4978 59.7662 16.2515C59.5986 17.2002 59.2211 18.6348 58.3923 20.5927C58.0088 20.0811 57.61 19.5803 57.1956 19.0966C56.8272 18.6666 56.1798 18.6164 55.7498 18.9852C55.3197 19.3536 55.2698 20.001 55.6384 20.431C56.2608 21.1574 56.8467 21.9238 57.3891 22.7113L54.9775 25.5743C54.9567 25.5991 54.9262 25.6132 54.894 25.6132H48.1457C47.4775 25.613 46.8578 25.9148 46.4459 26.4409ZM56.7259 33.3405C56.477 33.6941 56.0881 33.918 55.6588 33.9551C55.2276 33.9917 54.8207 33.844 54.5143 33.5375C54.0157 33.0389 53.9506 32.2551 54.3596 31.6739C56.1564 29.1204 57.6843 26.6416 58.9009 24.3061C61.9982 18.3627 62.8063 13.7748 61.0648 12.0356C60.472 11.4405 59.5379 11.1386 58.2884 11.1386C56.2944 11.1386 53.6184 11.8988 50.5235 13.3413C49.5259 12.7139 48.4887 12.1464 47.4213 11.6437C47.4319 11.638 47.4425 11.6326 47.4531 11.6271C56.854 6.72902 61.1575 8.03072 63.1121 9.98566C65.0671 11.9392 66.3691 16.2418 61.4702 25.6443C60.1965 28.0891 58.6004 30.6785 56.7259 33.3405Z" fill="black"/>
<path id="Vector_5" d="M32.8052 8.10267V7.60419H33.3037C33.8701 7.60419 34.329 7.14509 34.329 6.5788C34.329 6.01251 33.8701 5.55341 33.3037 5.55341H32.8052V5.05493C32.8052 4.48864 32.3462 4.02954 31.7798 4.02954C31.2134 4.02954 30.7544 4.48864 30.7544 5.05493V5.55341H30.2559C29.6895 5.55341 29.2305 6.01251 29.2305 6.5788C29.2305 7.14509 29.6895 7.60419 30.2559 7.60419H30.7544V8.10267C30.7544 8.66896 31.2134 9.12806 31.7798 9.12806C32.3462 9.12806 32.8052 8.66896 32.8052 8.10267Z" fill="black"/>
</g>
</svg>
