<svg width="40" height="40" viewBox="0 0 40 40" fill="none" xmlns="http://www.w3.org/2000/svg">
<g id="instagram 1" clip-path="url(#clip0_5624_2016)">
<path id="Vector" d="M29.1723 0H10.8276C4.85717 0 0 4.85717 0 10.8276V29.1726C0 35.1428 4.85717 39.9999 10.8276 39.9999H29.1726C35.1428 39.9999 39.9999 35.1428 39.9999 29.1726V10.8276C39.9999 4.85717 35.1428 0 29.1723 0V0ZM20 30.9371C13.9691 30.9371 9.06279 26.0308 9.06279 20C9.06279 13.9691 13.9691 9.06279 20 9.06279C26.0308 9.06279 30.9371 13.9691 30.9371 20C30.9371 26.0308 26.0308 30.9371 20 30.9371ZM31.1987 11.6421C29.4164 11.6421 27.9669 10.1925 27.9669 8.41032C27.9669 6.6281 29.4164 5.17821 31.1987 5.17821C32.9809 5.17821 34.4308 6.6281 34.4308 8.41032C34.4308 10.1925 32.9809 11.6421 31.1987 11.6421Z" fill="white"/>
<path id="Vector_2" d="M20.0004 11.4082C15.2629 11.4082 11.4082 15.2626 11.4082 20.0004C11.4082 24.7379 15.2629 28.5926 20.0004 28.5926C24.7383 28.5926 28.5926 24.7379 28.5926 20.0004C28.5926 15.2626 24.7383 11.4082 20.0004 11.4082Z" fill="white"/>
<path id="Vector_3" d="M31.1993 7.52344C30.7104 7.52344 30.3125 7.92139 30.3125 8.41028C30.3125 8.89917 30.7104 9.29711 31.1993 9.29711C31.6885 9.29711 32.0865 8.89947 32.0865 8.41028C32.0865 7.92108 31.6885 7.52344 31.1993 7.52344Z" fill="white"/>
</g>
<defs>
<clipPath id="clip0_5624_2016">
<rect width="40" height="40" fill="white"/>
</clipPath>
</defs>
</svg>
