<svg width="30" height="30" viewBox="0 0 30 30" fill="none" xmlns="http://www.w3.org/2000/svg">
<g id="Market" clip-path="url(#clip0_5623_1952)">
<g id="Group">
<g id="Group_2">
<g id="Group_3">
<path id="Vector" d="M10.4172 30.0005C12.1967 30.0005 13.6392 28.558 13.6392 26.7786C13.6392 24.9991 12.1967 23.5566 10.4172 23.5566C8.63782 23.5566 7.19531 24.9991 7.19531 26.7786C7.19531 28.558 8.63782 30.0005 10.4172 30.0005Z" fill="white"/>
<path id="Vector_2" d="M24.0208 30.0005C25.8002 30.0005 27.2427 28.558 27.2427 26.7786C27.2427 24.9991 25.8002 23.5566 24.0208 23.5566C22.2413 23.5566 20.7988 24.9991 20.7988 26.7786C20.7988 28.558 22.2413 30.0005 24.0208 30.0005Z" fill="white"/>
<path id="Vector_3" d="M7.8754 5.62049L6.76561 2.25535C6.32384 0.924986 5.08845 0.0200086 3.68682 0H1.28826C0.892814 0 0.572266 0.320549 0.572266 0.715992C0.572266 1.11144 0.892814 1.43198 1.28826 1.43198H3.68682C4.46531 1.44918 5.15081 1.94906 5.40523 2.68499L9.916 16.3962L9.59381 17.2196C9.20124 18.246 9.30704 19.3965 9.88023 20.3341C10.476 21.2437 11.4784 21.805 12.5652 21.8377H26.527C26.9225 21.8377 27.243 21.5172 27.243 21.1217C27.243 20.7263 26.9225 20.4057 26.527 20.4057H12.5652C11.9624 20.3849 11.4106 20.062 11.0974 19.5465C10.7594 19.0378 10.6926 18.3956 10.9184 17.8281L11.348 16.7541C11.4125 16.5825 11.425 16.3957 11.3838 16.2171L11.1689 15.6801L25.7394 14.1765C26.8002 14.081 27.6804 13.3163 27.9231 12.2791L29.4267 5.94262L7.8754 5.62049Z" fill="white"/>
</g>
</g>
</g>
</g>
<defs>
<clipPath id="clip0_5623_1952">
<rect width="30" height="30" fill="white"/>
</clipPath>
</defs>
</svg>
