<svg width="35" height="30" viewBox="0 0 35 30" fill="none" xmlns="http://www.w3.org/2000/svg">
<g id="Search">
<g id="Group">
<g id="Group_2">
<path id="Vector" d="M30.9345 23.6409L25.9968 18.7032C26.8946 16.9077 27.4931 14.813 27.4931 12.7182C27.4931 5.68579 21.8073 0 14.7749 0C7.74243 0 2.05664 5.68579 2.05664 12.7182C2.05664 19.7506 7.74243 25.4364 14.7749 25.4364C16.8696 25.4364 18.9644 24.8379 20.7599 23.9401L25.6976 28.8778C27.1938 30.3741 29.4382 30.3741 30.9345 28.8778C32.2811 27.3815 32.2811 25.1372 30.9345 23.6409ZM14.7749 22.4439C9.38832 22.4439 5.04916 18.1047 5.04916 12.7182C5.04916 7.33167 9.38832 2.99252 14.7749 2.99252C20.1614 2.99252 24.5005 7.33167 24.5005 12.7182C24.5005 18.1047 20.1614 22.4439 14.7749 22.4439Z" fill="white"/>
</g>
</g>
</g>
</svg>
