<svg width="70" height="70" viewBox="0 0 70 70" fill="none" xmlns="http://www.w3.org/2000/svg">
<g id="sticker 1" clip-path="url(#clip0_7_944)">
<g id="Group">
<path id="Vector" d="M14.7766 52.3235C11.1934 48.147 8.88932 42.8597 8.44375 37.0508H0C0.472637 45.1172 3.92533 52.4412 8.97846 58.1216L14.7766 52.3235Z" fill="black"/>
<path id="Vector_2" d="M8.44375 32.9493C8.88932 27.1404 11.194 21.8532 14.7768 17.6766L8.979 11.8779C3.92561 17.5587 0.47291 24.8826 0 32.9493H8.44375Z" fill="black"/>
<path id="Vector_3" d="M55.2227 52.3235L61.0208 58.1216C66.0739 52.4412 69.5266 45.1172 69.9992 37.0508H61.5555C61.1099 42.8597 58.8058 48.147 55.2227 52.3235Z" fill="black"/>
<path id="Vector_4" d="M55.2227 17.677C58.8058 21.8534 61.1099 27.1408 61.5555 32.9497H69.9992C69.5266 24.8833 66.0739 17.5593 61.0208 11.8789L55.2227 17.677Z" fill="black"/>
<path id="Vector_5" d="M37.0508 70.0002C45.1172 69.5276 52.4412 66.0749 58.1216 61.0218L52.3235 55.2236C48.1472 58.8068 42.8597 61.1109 37.0508 61.5565V70.0002Z" fill="black"/>
<path id="Vector_6" d="M11.877 61.0218C17.5573 66.0749 24.8814 69.5276 32.9478 70.0002V61.5565C27.1389 61.1109 21.8515 58.8068 17.6751 55.2236L11.877 61.0218Z" fill="black"/>
<path id="Vector_7" d="M32.9492 0C24.883 0.472637 17.5593 3.92506 11.8789 8.97791L17.6767 14.7766C21.8531 11.1937 27.1405 8.88932 32.9492 8.44375V0Z" fill="black"/>
<path id="Vector_8" d="M37.0508 0V8.44375C42.8597 8.88932 48.147 11.1934 52.3235 14.7766L58.1216 8.97846C52.4412 3.92533 45.1172 0.472637 37.0508 0V0Z" fill="black"/>
<path id="Vector_9" d="M37.5712 30.2498L34.9997 26.3926L32.4281 30.2498C32.1558 30.6583 31.7473 30.9547 31.2765 31.0869L26.8145 32.3407L29.6884 35.9776C29.9908 36.3622 30.147 36.8428 30.127 37.3314L29.9408 41.9637L34.2867 40.3555C34.5171 40.2694 34.7593 40.2273 34.9997 40.2273C35.24 40.2273 35.4823 40.2694 35.7127 40.3555L40.0586 41.9637L39.8723 37.3314C39.8524 36.8428 40.0085 36.3621 40.3109 35.9776L43.1849 32.3407L38.7228 31.0869C38.2521 30.9547 37.8436 30.6583 37.5712 30.2498Z" fill="black"/>
<path id="Vector_10" d="M35 12.4414C22.5612 12.4414 12.4414 22.5612 12.4414 35C12.4414 47.4388 22.5612 57.5586 35 57.5586C47.4388 57.5586 57.5586 47.4388 57.5586 35C57.5586 22.5612 47.4388 12.4414 35 12.4414ZM48.312 32.4685L44.0002 37.9239L44.2806 44.8733C44.3086 45.5582 43.9923 46.2111 43.4375 46.6156C42.8814 47.0154 42.1665 47.1181 41.5189 46.878L35 44.4649L28.4811 46.8781C27.8383 47.1185 27.1193 47.0143 26.5625 46.6158C26.0077 46.2112 25.6914 45.5584 25.7194 44.8734L25.9998 37.924L21.688 32.4687C21.2635 31.93 21.1352 31.2149 21.3475 30.5621C21.5599 29.9112 22.0846 29.4085 22.7434 29.2223L29.4365 27.3438L33.2938 21.5579C34.0547 20.4163 35.9454 20.4163 36.7064 21.5579L40.5636 27.3438L47.2567 29.2223C47.9155 29.4085 48.4403 29.9112 48.6526 30.5621C48.8648 31.2148 48.7367 31.9298 48.312 32.4685Z" fill="black"/>
</g>
</g>
<defs>
<clipPath id="clip0_7_944">
<rect width="70" height="70" fill="white"/>
</clipPath>
</defs>
</svg>
