<svg width="40" height="40" viewBox="0 0 40 40" fill="none" xmlns="http://www.w3.org/2000/svg">
<g id="whatsapp 1" clip-path="url(#clip0_5624_2023)">
<path id="Vector" d="M20 0C8.95599 0 0 8.95599 0 20C0 31.044 8.95599 40 20 40C31.044 40 40 31.044 40 20C40 8.95599 31.044 0 20 0ZM20.4239 31.6446C20.4236 31.6446 20.4242 31.6446 20.4239 31.6446H20.419C18.4155 31.6437 16.4468 31.1414 14.6985 30.188L8.35297 31.8521L10.0513 25.6509C9.0036 23.8364 8.45245 21.7776 8.45337 19.6686C8.45612 13.0707 13.826 7.70294 20.4239 7.70294C23.6258 7.70416 26.6315 8.9505 28.8913 11.2122C31.1514 13.4741 32.3953 16.4807 32.3941 19.678C32.3914 26.2762 27.0209 31.6446 20.4239 31.6446Z" fill="white"/>
<path id="Vector_2" d="M20.4282 9.72363C14.9402 9.72363 10.4771 14.185 10.4746 19.669C10.474 21.5483 11.0001 23.3784 11.9959 24.962L12.2324 25.3383L11.2272 29.0086L14.9927 28.0211L15.3562 28.2365C16.8836 29.1429 18.6347 29.6223 20.42 29.6229H20.424C25.9077 29.6229 30.3709 25.1613 30.3733 19.6769C30.3742 17.0192 29.3403 14.5204 27.4619 12.6405C25.5836 10.7606 23.0854 9.72455 20.4282 9.72363ZM26.2803 23.9451C26.0309 24.6434 24.8362 25.2809 24.2615 25.3669C23.7461 25.4438 23.0942 25.4759 22.3777 25.2485C21.9431 25.1106 21.3862 24.9266 20.6724 24.6187C17.6722 23.3235 15.7126 20.3035 15.5631 20.1039C15.4136 19.9043 14.3418 18.4825 14.3418 17.0106C14.3418 15.5391 15.1145 14.8155 15.3886 14.5164C15.6629 14.217 15.987 14.1423 16.1863 14.1423C16.3856 14.1423 16.5851 14.1441 16.7594 14.1526C16.9431 14.1618 17.1897 14.0828 17.4323 14.666C17.6816 15.2647 18.2798 16.7363 18.3546 16.8858C18.4293 17.0356 18.4791 17.2102 18.3796 17.4098C18.2798 17.6094 17.9484 18.04 17.6319 18.4324C17.4991 18.5969 17.3261 18.7434 17.5007 19.0428C17.6749 19.3419 18.2755 20.3212 19.1645 21.114C20.3071 22.1327 21.2708 22.4482 21.5699 22.5981C21.8687 22.7476 22.0432 22.7226 22.2178 22.5233C22.392 22.3237 22.9655 21.6502 23.1647 21.3508C23.364 21.0515 23.5636 21.1015 23.8376 21.2013C24.112 21.3008 25.5823 22.0244 25.8814 22.1739C26.1805 22.3237 26.3798 22.3985 26.4545 22.5233C26.5296 22.6481 26.5296 23.2466 26.2803 23.9451Z" fill="white"/>
</g>
<defs>
<clipPath id="clip0_5624_2023">
<rect width="40" height="40" fill="white"/>
</clipPath>
</defs>
</svg>
